<svg transform="scale(1)" version="1.1" id="Layer_1" xmlns="http://www.w3.org/2000/svg" xmlns:xlink="http://www.w3.org/1999/xlink" x="0px" y="0px" viewBox="0 0 500 500" xml:space="preserve" class="show_show__wrapper__graphic__5Waiy "><title>React</title><style type="text/css">
	.st0{fill:#FEBC32;}
	.st1{opacity:0.63;fill:url(#Shadow_00000083801107256801509170000013217459587550412191_);enable-background:new    ;}
	.st2{fill:#68E1FD;}
	.st3{opacity:0.39;enable-background:new    ;}
	.st4{fill:#F2F2F2;}
	.st5{fill:#FFA197;}
	.st6{fill:#E54B5D;}
	.st7{fill:#8CCC00;}
	.st8{opacity:0.15;enable-background:new    ;}
	.st9{fill:#1D3F75;}
	.st10{fill:#1C7377;}
</style><path class="st0" id="Base" d="M471,253.7l-178.8-104c-2.6-1.5-5.8-1.5-8.5,0l-267.3,153c-4,2.3-5.4,7.5-3.1,11.5
	c0.7,1.3,1.8,2.4,3.1,3.1l171,98.7c8.5,4.9,19.1,4.9,27.6,0l256-147.8c4-2.4,5.4-7.6,3-11.6C473.3,255.5,472.3,254.5,471,253.7z"></path><linearGradient id="Shadow_00000017488421389796264560000015878857168255519908_" gradientUnits="userSpaceOnUse" x1="437.1793" y1="220.1296" x2="429.5693" y2="232.8896" gradientTransform="matrix(1 0 0 -1 0 502)"><stop offset="0" style="stop-color: rgb(242, 242, 242); stop-opacity: 0;"></stop><stop offset="0.99" style="stop-color: rgb(255, 168, 106);"></stop></linearGradient><path id="Shadow" d="
	M429.3,253.7l-29.2,17.1l33.3,19.4h0.8c11.6-7.7,20-10.8,29.1-15.5C452.1,267.4,441,260.1,429.3,253.7z" style="opacity: 0.63; fill: url(&quot;#Shadow_00000017488421389796264560000015878857168255519908_&quot;);"></path><g id="Lines"><path d="M187.1,374.9L67.7,306l0.7-0.4L283.6,179l119.6,70.6l-0.7,0.4L187.1,374.9z M69.7,306l117.4,67.8l214.1-124.2l-117.6-69.5
		L69.7,306z"></path><rect x="335.5" y="197.6" width="1" height="90.5"></rect><path d="M130,341.1h-1c0-0.2,0.2-22.3,0-26l1,0C130.2,318.9,130.1,340.2,130,341.1z"></path><rect x="170.5" y="210.8" width="1" height="34.8"></rect><rect x="192.7" y="198.2" width="1" height="34.8"></rect><rect x="208.9" y="189.4" width="1" height="34.8"></rect></g><g id="Data_Report"><path class="st2" d="M217,247.1c0,0-11.7,2.9-8.2,21.7l25.6-14.5C234.4,254.3,224,245.3,217,247.1z"></path><path class="st3" d="M217,247.1c0,0-11.7,2.9-8.2,21.7l25.6-14.5C234.4,254.3,224,245.3,217,247.1z"></path><path class="st2" d="M252,362.5c20.1-11.7,37.8-21.8,57.4-33.2c-1.5-0.7-2.4-1.5-3.7-2.1c-36.5-17.5-22.8-43.3-22.6-69.8
		c0-8.5-0.1-17.3-2.7-25.5c-0.8-3.2-2.4-6.1-4.5-8.6c-1.4-1.6-3.2-2.7-5.2-3.3c-2.2-0.4-4.4,1.1-6.2,2c-2.1,1.1-4.2,2.2-6.3,3.3
		l-16.6,8.7l-13.4,7l-2.4,1.2l-9.9,5.2c1.9-1,6,2.4,7,3.4c2.2,2.5,3.7,5.4,4.6,8.5c2.6,8.2,2.8,17,2.7,25.5
		C230,311.1,217.3,344.8,252,362.5z"></path><path class="st4" d="M266,268.4v8.2l2.1-1.4v-8C267.5,267.6,266.8,268,266,268.4z"></path><path class="st4" d="M270.4,263.1v11.1l2.1-1.4v-10.8L270.4,263.1z"></path><path class="st4" d="M274.7,257.4V272l2.1-1.4v-14C276.1,256.9,275.4,257.2,274.7,257.4z"></path><path d="M249.3,277.9c1.5-1.7,3.5-2.8,5.8-2.9c0.4,0,0.7,0,1.1,0.1c1.5,0.4,2.7,1.2,3.6,2.5c0.8-1.2,1.7-2.3,2.7-3.3
		c-1.4-1.6-3.3-2.8-5.4-3.3c-3.6-0.8-7.4,0.6-10.7,4c-1,1-1.8,2.1-2.6,3.3c1.2,0.7,2.4,1.5,3.5,2.3
		C247.8,279.6,248.5,278.7,249.3,277.9z"></path><path class="st5" d="M249.3,307.5c-2-0.6-3.7-2.4-4.7-5.2c-1.3-3.8-1.4-7.8-0.5-11.7c0.5-2.5,1.4-4.9,2.7-7.1
		c-1.2-0.8-2.3-1.5-3.5-2.3c-1.5,2.6-2.6,5.5-3.2,8.5c-1.1,4.6-0.8,9.5,0.7,14c1.5,4,4,6.7,7.3,7.8
		C248.4,310.1,248.8,308.8,249.3,307.5z"></path><path class="st4" d="M265.2,281.1c-0.5-1.4-1.3-2.8-2.2-4c-1,1.1-1.9,2.2-2.7,3.4c0.4,0.7,0.7,1.4,1,2.1c2.4,7.7,0.6,16.1-4.7,22.1
		c-2.1,2.1-4.3,3.1-6.3,2.9c-0.5,1.3-1,2.7-1.4,4l0,0c0.7,0.1,1.3,0.2,2,0.2c3,0,6.1-1.5,8.8-4.2C266,300.5,268.2,290.4,265.2,281.1
		L265.2,281.1z"></path><ellipse class="st4" transform="matrix(0.1106 -0.9939 0.9939 0.1106 -63.4865 512.3135)" cx="254.5" cy="291.6" rx="4.7" ry="2.6"></ellipse><path class="st4" d="M237.1,267.9l14-8.2l22.2-13l5.1-3c0.3-0.2,0.4-0.7,0.2-1c-0.2-0.3-0.6-0.4-0.9-0.2l-14,8.2l-22.2,13l-5.1,3
		c-0.3,0.2-0.4,0.7-0.2,1C236.4,268,236.8,268.1,237.1,267.9z"></path><path class="st4" d="M235.4,263.9l14-8.2l22.2-13l5.1-3c0.4-0.2,0.5-0.7,0.3-1c-0.2-0.4-0.7-0.5-1-0.3l0,0l-14,8.2l-22.2,13l-5.1,3
		c-0.3,0.2-0.4,0.7-0.2,1C234.6,264,235,264.1,235.4,263.9z"></path><path class="st4" d="M237.1,272.3l14-8.2l22.2-13l5.1-3c0.3-0.2,0.4-0.7,0.2-1c-0.2-0.3-0.6-0.4-0.9-0.2l-14,8.2l-22.2,13l-5.1,3
		c-0.4,0.2-0.5,0.7-0.3,1C236.3,272.4,236.8,272.5,237.1,272.3z"></path><path class="st4" d="M237.1,327.9l14-8.2l22.2-13l5.1-3c0.4-0.2,0.5-0.7,0.3-1s-0.7-0.5-1-0.3l0,0l-14,8.2l-22.2,13l-5.1,3
		c-0.3,0.2-0.4,0.7-0.2,1C236.4,327.9,236.8,328,237.1,327.9z"></path><path class="st4" d="M237.4,332.4l14-8.2l22.2-13l5.1-3c0.4-0.2,0.5-0.7,0.3-1s-0.7-0.5-1-0.3l0,0l-14,8.2l-22.2,13l-5.1,3
		c-0.3,0.2-0.4,0.7-0.2,1C236.7,332.4,237.1,332.5,237.4,332.4L237.4,332.4z"></path><path class="st4" d="M238.2,336.7l14-8.2l22.2-13l5.1-3c0.3-0.2,0.4-0.7,0.2-1c-0.2-0.3-0.6-0.4-1-0.2l-14,8.2l-22.2,13l-5.1,3
		c-0.4,0.2-0.5,0.7-0.3,1C237.4,336.7,237.9,336.9,238.2,336.7z"></path></g><g id="Music_Icon"><path class="st5" d="M160.3,272.8l-1,55.2c-0.1,1.9-1.7,3.4-3.6,3.3c-0.5,0-1-0.1-1.4-0.3l-46.9-23.4c-1.6-0.8-2.6-2.4-2.5-4.2
		l1-55.3c0-2.1,1.8-3.7,3.8-3.7c0.6,0,1.1,0.2,1.6,0.4l46.5,23.7C159.4,269.4,160.4,271.1,160.3,272.8z"></path><path class="st6" d="M146.5,296.2v-26.8l-23.6,1.1c0,0-0.6,21.8-0.6,21.8c-2.9,1-6.4,2.2-8.4,4.7c-1.6,2.1-2.2,5.6,0.2,7.4
		s5.8,0.6,8-0.7c1.8-1,3.2-2.5,4.1-4.3c0.6-1.4,0.3-2.9,0.3-4.4l0.2-7.9l0.2-12.2h16.7v19.5c-0.1,0.1-0.3,0.1-0.4,0.2
		c-3.7,0.5-7.6,1.1-10.4,3.7c-1.3,1.2-2.1,3-2.1,4.8c0,0.3,0,0.5,0,0.8c0.2,1.4,0.9,2.7,2.1,3.5c3,2,6.9,1.7,9.7-0.6
		C145.5,304.2,147,300.2,146.5,296.2z"></path></g><g id="Image"><path class="st2" d="M298.8,179.9v44.8c0,1.4,1.1,2.5,2.5,2.5c0.4,0,0.9-0.1,1.2-0.3l62.3-35.8c0.8-0.4,1.3-1.3,1.3-2.2v-45.4
		c0-1.4-1.1-2.5-2.5-2.5c-0.4,0-0.9,0.1-1.2,0.3l-61.8,35.6C299.5,177.5,298.8,178.7,298.8,179.9z"></path><polygon class="st4" points="308.8,179.3 308.8,218.6 360.6,188.8 360.6,149.5 	"></polygon><path class="st7" d="M308.8,218.6l12.4-27.4c1.3-2.8,4.6-4.1,7.4-2.8l6.1,2.7l11.9-20c1.1-1.8,3.5-2.4,5.3-1.3
		c0.1,0.1,0.2,0.1,0.3,0.2l8.4,6.3v12.6L308.8,218.6z"></path></g><g id="Cloud"><path class="st2" d="M262.6,127.8c-1.5-1.9-22-14-22-14v0.1c-4.2-4.7-12-3-22.1,5.8c0,0-0.4-9.7-12-11.2s-14.9,3.7-14.9,3.7
		s-3.9-18.4-27.2-11.5c-21.1,6.3-18.1,27.5-18.1,27.5s-13.1-3.3-23.6,11.2s-9.7,31.4-9.7,31.4s-22.1,8-24.9,28.1
		c-0.2,1.7-0.4,3.5-0.4,5.2v0.5c-0.3,3.6,0.5,9.1,1.2,12.9c0.4,2.5,1.9,4.6,4.1,5.9l23.4,13.4c0.7-5.8-0.1-11.7-2.4-17.1l116-67.3
		c0,0,8.9-7.8,12.6-18.1l8.9-2.3C251.4,131.8,264.1,129.6,262.6,127.8z"></path><path class="st8" d="M262.6,127.8c-1.5-1.9-22-14-22-14v0.1c-4.2-4.7-12-3-22.1,5.8c0,0-0.4-9.7-12-11.2s-14.9,3.7-14.9,3.7
		s-3.9-18.4-27.2-11.5c-21.1,6.3-18.1,27.5-18.1,27.5s-13.1-3.3-23.6,11.2s-9.7,31.4-9.7,31.4s-22.1,8-24.9,28.1
		c-0.2,1.7-0.4,3.5-0.4,5.2v0.5c-0.3,3.6,0.5,9.1,1.2,12.9c0.4,2.5,1.9,4.6,4.1,5.9l23.4,13.4c0.7-5.8-0.1-11.7-2.4-17.1l116-67.3
		c0,0,8.9-7.8,12.6-18.1l8.9-2.3C251.4,131.8,264.1,129.6,262.6,127.8z"></path><path class="st2" d="M129,238.2l123.3-71.6c0,0,15.1-13.3,14.2-28.1s-10.8-17.3-25.5-4.4c0,0-0.3-12.5-12-11.2s-16.1,8.8-16.1,8.8
		s2.3-22.2-21-15.2c-12.2,3.4-21.3,13.7-23.2,26.2c0,0-13.1-3.3-23.6,11.2s-9.7,31.4-9.7,31.4s-22.1,8-24.9,28.1
		S117.3,242.4,129,238.2z"></path></g><g id="Plant"><ellipse class="st2" cx="417" cy="260.4" rx="19.7" ry="18.3"></ellipse><ellipse class="st9" cx="417" cy="249.6" rx="14.8" ry="8"></ellipse><path class="st10" d="M416.2,185.3v62.6c0,0.7,0.6,1.3,1.3,1.3c0.7,0,1.3-0.6,1.3-1.3v-62.6c0-0.7-0.6-1.3-1.3-1.3
		C416.8,184,416.2,184.6,416.2,185.3z"></path><path class="st10" d="M422.1,183c0.8-1.5,0.9-3.2,0.4-4.8c-0.6-1.7-1.4-3.4-2.1-5.1s-1.3-3.2-2-4.7l0,0c-0.8,0.4-6,8.3-6.2,11.7
		s4.2,6.1,4.2,6.1l1.3,0.9c0.2,0.1,2.5-1.8,2.8-2C421.2,184.5,421.7,183.8,422.1,183z"></path><path class="st10" d="M418.2,201.2L418.2,201.2c5.6-0.5,9.4-5.2,12.1-10.1C424.4,191.4,418.9,195.1,418.2,201.2z"></path><path class="st10" d="M417.8,201L417.8,201c-1.7-5.3-7.1-8.1-12.4-9.7C406.9,197,411.7,201.6,417.8,201z"></path><path class="st10" d="M417.5,216.6L417.5,216.6c7.1-0.7,12-6.7,15.4-12.9C425.3,204.1,418.4,208.8,417.5,216.6z"></path><path class="st10" d="M416.9,216.3L416.9,216.3c-2.2-6.8-9-10.4-15.8-12.3C403.1,211.2,409.1,217,416.9,216.3z"></path><path class="st10" d="M418,234.6L418,234.6c8.1-0.8,13.7-7.6,17.5-14.7C426.9,220.4,419,225.8,418,234.6z"></path><path class="st10" d="M417.4,234.3L417.4,234.3c-2.5-7.8-10.3-11.8-18-14C401.6,228.5,408.5,235.1,417.4,234.3z"></path></g></svg>